#N canvas 825 249 252 173 10;
#X obj 56 102 dac~;
#N canvas 554 232 235 238 delay 0;
#X obj 35 22 inlet~;
#X obj 35 197 outlet~;
#X obj 35 167 delread~ \$0-delay1;
#X obj 35 55 delwrite~ \$0-delay1 5000;
#X msg 35 137 1000;
#X obj 35 107 loadbang;
#X connect 0 0 3 0;
#X connect 2 0 1 0;
#X connect 4 0 2 0;
#X connect 5 0 4 0;
#X restore 58 57 pd delay;
#X obj 58 31 adc~;
#X connect 1 0 0 0;
#X connect 1 0 0 1;
#X connect 2 0 1 0;
