#N canvas 896 47 352 222 10;
#X obj 125 135 dac~;
#N canvas 0 23 161 223 sines 0;
#X obj 53 110 osc~ 400;
#X obj 53 84 +~ 400;
#X obj 53 34 osc~ 1;
#X obj 53 61 *~ 150;
#X obj 53 137 *~ 0.2;
#X obj 53 167 outlet~;
#X connect 0 0 4 0;
#X connect 1 0 0 0;
#X connect 2 0 3 0;
#X connect 3 0 1 0;
#X connect 4 0 5 0;
#X restore 125 58 pd sines;
#N canvas 508 242 260 393 tone 0;
#X obj 113 241 line~;
#X obj 17 293 *~;
#X obj 17 15 r tone;
#X obj 17 120 mtof;
#X obj 132 142 t b b;
#X obj 132 117 bng 15 250 50 0 empty empty empty 17 7 0 10 -262144
-1 -1;
#X msg 113 189 1 50;
#X obj 167 171 delay 100;
#X msg 86 49 pitch 60;
#X obj 149 286 env~;
#X obj 149 310 change;
#X obj 149 336 s env;
#X obj 17 49 list trim;
#X obj 17 83 route pitch bang;
#X obj 17 326 *~ 0.4;
#X obj 17 156 phasor~ 200;
#X obj 17 357 outlet~;
#X msg 167 202 0 500;
#X obj 17 248 clip~ -1 1;
#X obj 17 198 -~ 0.5;
#X obj 17 222 *~ 2;
#X text 25 180 make saw;
#X connect 0 0 1 1;
#X connect 0 0 9 0;
#X connect 1 0 14 0;
#X connect 2 0 12 0;
#X connect 3 0 15 0;
#X connect 4 0 7 0;
#X connect 4 1 6 0;
#X connect 5 0 4 0;
#X connect 6 0 0 0;
#X connect 7 0 17 0;
#X connect 8 0 13 0;
#X connect 9 0 10 0;
#X connect 10 0 11 0;
#X connect 12 0 13 0;
#X connect 13 0 3 0;
#X connect 13 1 4 0;
#X connect 14 0 16 0;
#X connect 15 0 19 0;
#X connect 17 0 0 0;
#X connect 18 0 1 0;
#X connect 19 0 20 0;
#X connect 20 0 18 0;
#X restore 193 59 pd tone;
#N canvas 554 232 235 238 delay 0;
#X obj 35 22 inlet~;
#X obj 35 197 outlet~;
#X obj 35 167 delread~ \$0-delay1;
#X obj 35 55 delwrite~ \$0-delay1 5000;
#X msg 35 137 1000;
#X obj 35 107 loadbang;
#X connect 0 0 3 0;
#X connect 2 0 1 0;
#X connect 4 0 2 0;
#X connect 5 0 4 0;
#X restore 58 57 pd delay;
#X obj 58 31 adc~;
#N canvas 666 63 404 247 scope~ 0;
#X obj 26 28 inlet~ audio;
#X obj 75 154 metro 100;
#X msg 75 125 1;
#X obj 56 59 clip~ -1 1;
#X obj 75 95 loadbang;
#N canvas 0 22 450 300 (subpatch) 0;
#X array scope 512 float 2;
#X coords 0 1 512 -1 200 140 1;
#X restore 168 27 graph;
#X obj 56 190 tabwrite~ scope;
#X obj 25 222 outlet~;
#X connect 0 0 3 0;
#X connect 0 0 7 0;
#X connect 1 0 6 0;
#X connect 2 0 1 0;
#X connect 3 0 6 0;
#X connect 4 0 2 0;
#X restore 125 105 pd scope~;
#X connect 1 0 5 0;
#X connect 2 0 5 0;
#X connect 3 0 5 0;
#X connect 4 0 3 0;
#X connect 5 0 0 0;
#X connect 5 0 0 1;
