#N canvas 475 791 596 140 10;
#X obj 165 30 receive \$0-float;
#X obj 36 30 receive \$0-bang;
#X obj 298 30 receive \$0-symbol;
#X obj 443 30 receive \$0-list;
#X obj 433 100 print list;
#X obj 292 100 print symbol;
#X obj 161 101 print float;
#X obj 23 101 print bang;
#X obj 36 68 send \$0-bang-echo;
#X obj 165 67 send \$0-float-echo;
#X obj 298 68 send \$0-symbol-echo;
#X obj 443 68 send \$0-list-echo;
#X connect 0 0 6 0;
#X connect 0 0 9 0;
#X connect 1 0 7 0;
#X connect 1 0 8 0;
#X connect 2 0 5 0;
#X connect 2 0 10 0;
#X connect 3 0 4 0;
#X connect 3 0 11 0;
