#N canvas 711 159 800 208 10;
#X obj 80 68 metro 1000;
#X obj 80 102 bng 15 250 50 0 empty empty empty 17 7 0 10 -262144 -1
-1;
#X obj 179 10 loadbang;
#X obj 80 134 send bangFromPd;
#X obj 227 125 nbx 5 14 -1e+37 1e+37 0 0 empty empty empty 0 -8 0 10
-262144 -1 -1 17 256;
#X obj 227 98 random 100;
#X obj 227 67 metro 750;
#X obj 248 11 bng 15 250 50 0 empty empty empty 17 7 0 10 -262144 -1
-1;
#X obj 227 151 send floatFromPd;
#X obj 381 98 random 100;
#X obj 381 151 send symbolFromPd;
#X obj 381 68 metro 1250;
#X msg 381 125 symbol mySymbol;
#X obj 535 98 random 100;
#X obj 535 68 metro 2000;
#X msg 535 125 list text 0.1 123 text2;
#X obj 535 151 send listFromPd;
#X connect 0 0 1 0;
#X connect 1 0 3 0;
#X connect 2 0 0 0;
#X connect 2 0 6 0;
#X connect 2 0 11 0;
#X connect 2 0 14 0;
#X connect 4 0 8 0;
#X connect 5 0 4 0;
#X connect 6 0 5 0;
#X connect 7 0 0 0;
#X connect 7 0 6 0;
#X connect 7 0 11 0;
#X connect 7 0 14 0;
#X connect 9 0 12 0;
#X connect 11 0 9 0;
#X connect 12 0 10 0;
#X connect 13 0 15 0;
#X connect 14 0 13 0;
#X connect 15 0 16 0;
