#N canvas 837 173 263 175 10;
#X obj 41 25 loadbang;
#X obj 41 84 bng 15 250 50 0 empty empty empty 17 7 0 10 -262144 -1
-1;
#X obj 41 110 send subscription-test;
#X obj 41 52 metro 100;
#X connect 0 0 3 0;
#X connect 1 0 2 0;
#X connect 3 0 1 0;
